<svg width="140" height="19" viewBox="0 0 140 19" fill="none" xmlns="http://www.w3.org/2000/svg">
    <path d="M0.015625 15V3.625H3.51562C4.51562 3.625 5.40885 3.85156 6.19531 4.30469C6.98698 4.7526 7.60417 5.39323 8.04688 6.22656C8.48958 7.05469 8.71094 7.9974 8.71094 9.05469V9.57812C8.71094 10.6354 8.49219 11.5755 8.05469 12.3984C7.6224 13.2214 7.01042 13.8594 6.21875 14.3125C5.42708 14.7656 4.53385 14.9948 3.53906 15H0.015625ZM2.35938 5.52344V13.1172H3.49219C4.40885 13.1172 5.10938 12.8177 5.59375 12.2188C6.07812 11.6198 6.32552 10.763 6.33594 9.64844V9.04688C6.33594 7.89062 6.09635 7.01562 5.61719 6.42188C5.13802 5.82292 4.4375 5.52344 3.51562 5.52344H2.35938ZM13.4844 3.625L16.4062 11.875L19.3125 3.625H22.3906V15H20.0391V11.8906L20.2734 6.52344L17.2031 15H15.5938L12.5312 6.53125L12.7656 11.8906V15H10.4219V3.625H13.4844ZM33.3672 11.2109C33.2786 12.4349 32.8255 13.3984 32.0078 14.1016C31.1953 14.8047 30.1224 15.1562 28.7891 15.1562C27.3307 15.1562 26.1823 14.6667 25.3438 13.6875C24.5104 12.7031 24.0938 11.3542 24.0938 9.64062V8.94531C24.0938 7.85156 24.2865 6.88802 24.6719 6.05469C25.0573 5.22135 25.6068 4.58333 26.3203 4.14062C27.0391 3.69271 27.8724 3.46875 28.8203 3.46875C30.1328 3.46875 31.1901 3.82031 31.9922 4.52344C32.7943 5.22656 33.2578 6.21354 33.3828 7.48438H31.0391C30.9818 6.75 30.776 6.21875 30.4219 5.89062C30.0729 5.55729 29.5391 5.39062 28.8203 5.39062C28.0391 5.39062 27.4531 5.67188 27.0625 6.23438C26.6771 6.79167 26.4792 7.65885 26.4688 8.83594V9.69531C26.4688 10.9245 26.6536 11.8229 27.0234 12.3906C27.3984 12.9583 27.987 13.2422 28.7891 13.2422C29.513 13.2422 30.0521 13.0781 30.4062 12.75C30.7656 12.4167 30.9714 11.9036 31.0234 11.2109H33.3672ZM41.3281 12.6562H37.2188L36.4375 15H33.9453L38.1797 3.625H40.3516L44.6094 15H42.1172L41.3281 12.6562ZM37.8516 10.7578H40.6953L39.2656 6.5L37.8516 10.7578Z" fill="#7E8183"/>
    <path fill-rule="evenodd" clip-rule="evenodd" d="M50 0C49.4477 0 49 0.447716 49 1V17C49 17.5523 49.4477 18 50 18H139C139.552 18 140 17.5523 140 17V1C140 0.447715 139.552 0 139 0H50ZM80.3125 12.5156C80.7083 11.6719 80.9062 10.6901 80.9062 9.57031V9.0625C80.9062 7.94792 80.7031 6.96615 80.2969 6.11719C79.8958 5.26302 79.3255 4.60938 78.5859 4.15625C77.8516 3.69792 77.0104 3.46875 76.0625 3.46875C75.1146 3.46875 74.2708 3.69792 73.5312 4.15625C72.7969 4.60938 72.2266 5.26302 71.8203 6.11719C71.4193 6.96615 71.2188 7.95052 71.2188 9.07031V9.63281C71.224 10.7266 71.4297 11.6953 71.8359 12.5391C72.2422 13.3776 72.8151 14.0234 73.5547 14.4766C74.2943 14.9297 75.1354 15.1562 76.0781 15.1562C77.0312 15.1562 77.875 14.9271 78.6094 14.4688C79.349 14.0104 79.9167 13.3594 80.3125 12.5156ZM77.8906 6.33594C78.3177 6.95573 78.5312 7.86198 78.5312 9.05469V9.60938C78.526 10.7917 78.3125 11.6927 77.8906 12.3125C77.4688 12.9271 76.8646 13.2344 76.0781 13.2344C75.276 13.2344 74.6615 12.9141 74.2344 12.2734C73.8073 11.6328 73.5938 10.7318 73.5938 9.57031V9.01562C73.599 7.83333 73.8151 6.9375 74.2422 6.32812C74.6693 5.71354 75.276 5.40625 76.0625 5.40625C76.8542 5.40625 77.4635 5.71615 77.8906 6.33594ZM53.3594 10.9922V15H51.0156V3.625H55.4531C56.3073 3.625 57.0573 3.78125 57.7031 4.09375C58.3542 4.40625 58.8542 4.85156 59.2031 5.42969C59.5521 6.0026 59.7266 6.65625 59.7266 7.39062C59.7266 8.50521 59.3438 9.38542 58.5781 10.0312C57.8177 10.6719 56.763 10.9922 55.4141 10.9922H53.3594ZM53.3594 9.09375H55.4531C56.0729 9.09375 56.5443 8.94792 56.8672 8.65625C57.1953 8.36458 57.3594 7.94792 57.3594 7.40625C57.3594 6.84896 57.1953 6.39844 56.8672 6.05469C56.5391 5.71094 56.0859 5.53385 55.5078 5.52344H53.3594V9.09375ZM65.5547 10.8359H63.6875V15H61.3438V3.625H65.5703C66.9141 3.625 67.9505 3.92448 68.6797 4.52344C69.4089 5.1224 69.7734 5.96875 69.7734 7.0625C69.7734 7.83854 69.6042 8.48698 69.2656 9.00781C68.9323 9.52344 68.4245 9.9349 67.7422 10.2422L70.2031 14.8906V15H67.6875L65.5547 10.8359ZM63.6875 8.9375H65.5781C66.1667 8.9375 66.6224 8.78906 66.9453 8.49219C67.2682 8.1901 67.4297 7.77604 67.4297 7.25C67.4297 6.71354 67.276 6.29167 66.9688 5.98438C66.6667 5.67708 66.2005 5.52344 65.5703 5.52344H63.6875V8.9375ZM90.5 5.52344H87.0156V15H84.6719V5.52344H81.2344V3.625H90.5V5.52344ZM94.1875 10.0703H98.6875V8.23438H94.1875V5.52344H99.4531V3.625H91.8438V15H99.4688V13.1172H94.1875V10.0703ZM109.773 11.2109C109.685 12.4349 109.232 13.3984 108.414 14.1016C107.602 14.8047 106.529 15.1562 105.195 15.1562C103.737 15.1562 102.589 14.6667 101.75 13.6875C100.917 12.7031 100.5 11.3542 100.5 9.64062V8.94531C100.5 7.85156 100.693 6.88802 101.078 6.05469C101.464 5.22135 102.013 4.58333 102.727 4.14062C103.445 3.69271 104.279 3.46875 105.227 3.46875C106.539 3.46875 107.596 3.82031 108.398 4.52344C109.201 5.22656 109.664 6.21354 109.789 7.48438H107.445C107.388 6.75 107.182 6.21875 106.828 5.89062C106.479 5.55729 105.945 5.39062 105.227 5.39062C104.445 5.39062 103.859 5.67188 103.469 6.23438C103.083 6.79167 102.885 7.65885 102.875 8.83594V9.69531C102.875 10.9245 103.06 11.8229 103.43 12.3906C103.805 12.9583 104.393 13.2422 105.195 13.2422C105.919 13.2422 106.458 13.0781 106.812 12.75C107.172 12.4167 107.378 11.9036 107.43 11.2109H109.773ZM116.156 5.52344H119.641V3.625H110.375V5.52344H113.812V15H116.156V5.52344ZM127.828 10.0703H123.328V13.1172H128.609V15H120.984V3.625H128.594V5.52344H123.328V8.23438H127.828V10.0703ZM129.984 3.625V15H133.508C134.503 14.9948 135.396 14.7656 136.188 14.3125C136.979 13.8594 137.591 13.2214 138.023 12.3984C138.461 11.5755 138.68 10.6354 138.68 9.57812V9.05469C138.68 7.9974 138.458 7.05469 138.016 6.22656C137.573 5.39323 136.956 4.7526 136.164 4.30469C135.378 3.85156 134.484 3.625 133.484 3.625H129.984ZM132.328 13.1172V5.52344H133.484C134.406 5.52344 135.107 5.82292 135.586 6.42188C136.065 7.01562 136.305 7.89062 136.305 9.04688V9.64844C136.294 10.763 136.047 11.6198 135.562 12.2188C135.078 12.8177 134.378 13.1172 133.461 13.1172H132.328Z" fill="#7E8183"/>
</svg>
