<svg width="20" height="21" viewBox="0 0 20 21" fill="none" xmlns="http://www.w3.org/2000/svg">
    <path d="M13.535 1.30797C12.779 0.551967 11.463 0.551967 10.707 1.30797L0.808001 11.207C0.433303 11.5822 0.222841 12.0907 0.222841 12.621C0.222841 13.1512 0.433303 13.6598 0.808001 14.035L6.465 19.692C6.843 20.07 7.345 20.278 7.879 20.278C8.413 20.278 8.915 20.07 9.293 19.692L19.192 9.79297C19.57 9.41497 19.778 8.91297 19.778 8.37897C19.778 7.84497 19.57 7.34297 19.192 6.96497L13.535 1.30797ZM7.879 18.278V19.278V18.278L2.222 12.621L12.121 2.72197L17.778 8.37897L7.879 18.278Z" fill="#63718E"/>
    <path d="M7 14.5C7.55228 14.5 8 14.0523 8 13.5C8 12.9477 7.55228 12.5 7 12.5C6.44772 12.5 6 12.9477 6 13.5C6 14.0523 6.44772 14.5 7 14.5Z" fill="#63718E"/>
    <path d="M13.707 20.207L12.293 18.793L18.293 12.793L19.707 14.208L13.707 20.207Z" fill="#63718E"/>
    <path d="M6.293 0.792969L7.707 2.20697L1.707 8.20697L0.292999 6.79197L6.293 0.792969Z" fill="#63718E"/>
</svg>