<svg width="116" height="26" viewBox="0 0 116 26" fill="none" xmlns="http://www.w3.org/2000/svg">
    <path d="M0 26V6.513H4.16057V8.099C4.72244 7.527 5.37797 7.07633 6.12714 6.747C6.88522 6.41767 7.69236 6.253 8.54856 6.253C9.69015 6.253 10.7604 6.53033 11.7593 7.085C12.7671 7.631 13.5787 8.43267 14.1941 9.49C14.8184 10.5473 15.1305 11.8343 15.1305 13.351C15.1305 14.937 14.8273 16.2717 14.2208 17.355C13.6144 18.4297 12.8117 19.2443 11.8128 19.799C10.8139 20.3537 9.72582 20.631 8.54856 20.631C7.69236 20.631 6.88522 20.4577 6.12714 20.111C5.37797 19.7643 4.72244 19.292 4.16057 18.694V26H0ZM4.16057 13.949C4.16057 14.5903 4.3211 15.1537 4.64217 15.639C4.96325 16.1157 5.37351 16.484 5.87295 16.744C6.38132 17.004 6.91644 17.134 7.47832 17.134C8.38802 17.134 9.17732 16.8307 9.84623 16.224C10.524 15.6087 10.863 14.651 10.863 13.351C10.863 12.051 10.5285 11.1063 9.8596 10.517C9.1907 9.919 8.39694 9.62 7.47832 9.62C6.92536 9.62 6.3947 9.75 5.88633 10.01C5.37797 10.2613 4.96325 10.621 4.64217 11.089C4.3211 11.557 4.16057 12.116 4.16057 12.766V13.949Z" fill="#423D59"/>
    <path d="M17.7154 20.319V6.513H21.876V8.385C22.2863 7.735 22.8303 7.21933 23.5081 6.838C24.1949 6.448 25.0154 6.253 25.9697 6.253C26.5405 6.253 26.9864 6.29633 27.3075 6.383C27.6375 6.461 27.8426 6.52167 27.9229 6.565L27.2406 10.179C27.1603 10.1357 26.9819 10.0663 26.7055 9.971C26.429 9.87567 26.0722 9.828 25.6352 9.828C24.6809 9.828 23.9273 10.0273 23.3743 10.426C22.8303 10.8247 22.4423 11.3317 22.2104 11.947C21.9875 12.5537 21.876 13.1733 21.876 13.806V20.319H17.7154Z" fill="#423D59"/>
    <path d="M36.878 20.618C35.344 20.618 33.9928 20.3103 32.8244 19.695C31.6561 19.0797 30.7419 18.2347 30.0819 17.16C29.4309 16.0767 29.1054 14.8287 29.1054 13.416C29.1054 12.012 29.4309 10.7727 30.0819 9.698C30.7419 8.61467 31.6561 7.774 32.8244 7.176C33.9928 6.56933 35.344 6.266 36.878 6.266C38.412 6.266 39.7632 6.56933 40.9315 7.176C42.0999 7.774 43.0096 8.61467 43.6606 9.698C44.3206 10.7727 44.6506 12.012 44.6506 13.416C44.6506 14.8287 44.3206 16.0767 43.6606 17.16C43.0096 18.2347 42.0999 19.0797 40.9315 19.695C39.7632 20.3103 38.412 20.618 36.878 20.618ZM36.878 17.42C37.9571 17.42 38.8223 17.056 39.4733 16.328C40.1244 15.6 40.4499 14.6293 40.4499 13.416C40.4499 12.2027 40.1244 11.2407 39.4733 10.53C38.8223 9.81933 37.9571 9.464 36.878 9.464C35.7988 9.464 34.9337 9.81933 34.2826 10.53C33.6316 11.2407 33.3061 12.2027 33.3061 13.416C33.3061 14.6293 33.6316 15.6 34.2826 16.328C34.9337 17.056 35.7988 17.42 36.878 17.42Z" fill="#423D59"/>
    <path d="M53.181 20.631C51.9948 20.631 50.9023 20.358 49.9034 19.812C48.9045 19.2573 48.1018 18.4383 47.4953 17.355C46.8889 16.2717 46.5856 14.937 46.5856 13.351C46.5856 11.8343 46.8933 10.5473 47.5087 9.49C48.133 8.43267 48.9446 7.631 49.9435 7.085C50.9513 6.53033 52.0305 6.253 53.181 6.253C54.0283 6.253 54.8265 6.41767 55.5757 6.747C56.3337 7.06767 56.9937 7.51833 57.5556 8.099V0H61.7162V20.319H57.5556V18.707C57.0026 19.2963 56.3471 19.7643 55.589 20.111C54.8399 20.4577 54.0372 20.631 53.181 20.631ZM54.2379 17.134C54.8086 17.134 55.3438 17.004 55.8432 16.744C56.3516 16.4753 56.7618 16.0983 57.074 15.613C57.3951 15.1277 57.5556 14.5557 57.5556 13.897V12.766C57.5556 12.116 57.3951 11.557 57.074 11.089C56.7529 10.621 56.3382 10.2613 55.8298 10.01C55.3215 9.75 54.7908 9.62 54.2379 9.62C53.3281 9.62 52.5344 9.919 51.8566 10.517C51.1877 11.1063 50.8532 12.051 50.8532 13.351C50.8532 14.651 51.1877 15.6087 51.8566 16.224C52.5344 16.8307 53.3281 17.134 54.2379 17.134Z" fill="#423D59"/>
    <path d="M69.9217 20.579C68.9139 20.579 68.0845 20.423 67.4334 20.111C66.7823 19.7903 66.2695 19.3613 65.8949 18.824C65.5203 18.2867 65.2572 17.6887 65.1056 17.03C64.954 16.3713 64.8782 15.704 64.8782 15.028V6.513H69.0254V13.962C69.0254 14.5427 69.0923 15.0757 69.226 15.561C69.3598 16.0463 69.6051 16.4363 69.9618 16.731C70.3186 17.0257 70.8359 17.173 71.5137 17.173C72.1558 17.173 72.7043 16.991 73.1592 16.627C73.623 16.263 73.9752 15.8037 74.216 15.249C74.4569 14.6857 74.5772 14.105 74.5772 13.507V6.513H78.7244V20.319H74.5772V18.317C74.0778 19.0103 73.4312 19.5607 72.6374 19.968C71.8526 20.3753 70.9474 20.579 69.9217 20.579Z" fill="#423D59"/>
    <path d="M88.9931 20.631C87.4323 20.631 86.0633 20.3277 84.8861 19.721C83.7177 19.1057 82.808 18.2563 82.157 17.173C81.5059 16.081 81.1804 14.8157 81.1804 13.377C81.1804 11.9383 81.5059 10.686 82.157 9.62C82.808 8.554 83.7177 7.72633 84.8861 7.137C86.0633 6.54767 87.4323 6.253 88.9931 6.253C90.1615 6.253 91.1916 6.422 92.0834 6.76C92.9842 7.08933 93.7379 7.527 94.3443 8.073C94.9597 8.61033 95.4235 9.20833 95.7356 9.867C96.0478 10.517 96.2039 11.1627 96.2039 11.804V11.908H92.0968C92.0968 11.8387 92.0834 11.739 92.0567 11.609C91.9497 11.063 91.6464 10.5733 91.147 10.14C90.6565 9.70667 89.9296 9.49 88.9664 9.49C87.9407 9.49 87.0845 9.82367 86.3978 10.491C85.72 11.1497 85.3811 12.1117 85.3811 13.377C85.3811 14.625 85.72 15.6087 86.3978 16.328C87.0845 17.0387 87.9407 17.394 88.9664 17.394C90.0188 17.394 90.7858 17.1643 91.2674 16.705C91.749 16.237 92.0255 15.678 92.0968 15.028H96.2039C96.2039 15.678 96.0478 16.3323 95.7356 16.991C95.4324 17.6497 94.9776 18.252 94.3711 18.798C93.7646 19.344 93.011 19.786 92.1102 20.124C91.2183 20.462 90.1793 20.631 88.9931 20.631Z" fill="#423D59"/>
    <path d="M105.646 20.605C105.102 20.605 104.54 20.5573 103.961 20.462C103.39 20.3753 102.859 20.1977 102.369 19.929C101.878 19.6517 101.477 19.2487 101.165 18.72C100.861 18.1913 100.71 17.4937 100.71 16.627V9.633H97.4321V6.513H98.3552C99.0776 6.513 99.6038 6.46533 99.9338 6.37C100.273 6.27467 100.487 6.032 100.576 5.642C100.665 5.24333 100.71 4.59767 100.71 3.705V1.963H104.87V6.513H109.004V9.633H104.87V15.483C104.87 16.081 104.942 16.5663 105.084 16.939C105.236 17.3117 105.606 17.498 106.195 17.498C106.489 17.498 106.766 17.472 107.024 17.42C107.292 17.368 107.492 17.316 107.626 17.264V20.293C107.439 20.371 107.176 20.4403 106.837 20.501C106.498 20.5703 106.101 20.605 105.646 20.605Z" fill="#423D59"/>
    <path d="M113.806 20.709C113.191 20.709 112.669 20.501 112.241 20.085C111.813 19.669 111.599 19.162 111.599 18.564C111.599 17.9747 111.813 17.472 112.241 17.056C112.669 16.64 113.191 16.432 113.806 16.432C114.412 16.432 114.93 16.64 115.358 17.056C115.786 17.472 116 17.9747 116 18.564C116 19.162 115.786 19.669 115.358 20.085C114.93 20.501 114.412 20.709 113.806 20.709Z" fill="#423D59"/>
    <ellipse cx="37" cy="13.5" rx="8" ry="7.5" fill="#C774EE"/>
</svg>